<?xml version="1.0" standalone="no"?>
<!DOCTYPE svg PUBLIC "-//W3C//DTD SVG 20010904//EN"
 "http://www.w3.org/TR/2001/REC-SVG-20010904/DTD/svg10.dtd">
<svg version="1.0" xmlns="http://www.w3.org/2000/svg"
 width="700.000000pt" height="700.000000pt" viewBox="0 0 700.000000 700.000000"
 preserveAspectRatio="xMidYMid meet">
<metadata>
Created by potrace 1.14, written by Peter Selinger 2001-2017
</metadata>
<g transform="translate(0.000000,700.000000) scale(0.100000,-0.100000)"
fill="#000000" stroke="none">
<path d="M2338 6125 c-3 0 -6 -5211 -3 -5230 4 -20 11 -20 293 -20 l289 0 -1
2625 -1 2625 -287 0 c-159 0 -289 0 -290 0z"/>
<path d="M5833 3065 c0 -1564 3 -2185 11 -2188 6 -2 137 -3 291 -3 l280 1 1
2188 0 2187 -291 0 -292 0 0 -2185z"/>
<path d="M585 4365 c-2 -5 -3 -793 -2 -1750 l2 -1740 291 0 291 0 0 1747 c0
962 -3 1749 -6 1749 -3 1 -134 2 -290 3 -184 1 -285 -2 -286 -9z"/>
<path d="M4084 2188 l1 -1313 291 0 291 0 0 1312 0 1313 -292 0 -292 0 1
-1312z"/>
</g>
</svg>
